<svg xmlns="http://www.w3.org/2000/svg" viewBox="0 0 1832.71 1420.37"><defs><style>.cls-1,.cls-4,.cls-5{fill:none;}.cls-1{stroke:#feffe9;stroke-width:2.13px;}.cls-1,.cls-3,.cls-4,.cls-5{stroke-linecap:round;stroke-linejoin:round;}.cls-2{fill:#feffe9;}.cls-3,.cls-6{fill:#fff8d4;}.cls-3,.cls-4,.cls-5{stroke:#fff8d4;}.cls-3{stroke-width:8.68px;}.cls-4{stroke-width:3.97px;}.cls-5{stroke-width:6.39px;}.cls-6{fill-rule:evenodd;}</style></defs><g id="Layer_2" data-name="Layer 2"><g id="Layer_1-2" data-name="Layer 1"><line class="cls-1" x1="727.19" y1="40.38" x2="879.67" y2="40.38"/><polygon class="cls-2" points="787.67 35.01 794.67 28.01 801.56 34.89 787.67 35.01"/><polygon class="cls-2" points="787.61 18.05 794.61 25.05 801.49 18.17 787.61 18.05"/><polygon class="cls-2" points="803.01 33.46 796.01 26.45 802.9 19.57 803.01 33.46"/><polygon class="cls-2" points="786.09 33.46 793.09 26.45 786.21 19.57 786.09 33.46"/><polygon class="cls-2" points="808.33 35.41 815.33 28.41 822.22 35.29 808.33 35.41"/><polygon class="cls-2" points="808.27 18.45 815.27 25.45 822.15 18.57 808.27 18.45"/><polygon class="cls-2" points="823.67 33.85 816.67 26.85 823.56 19.97 823.67 33.85"/><polygon class="cls-2" points="806.75 33.85 813.75 26.85 806.87 19.97 806.75 33.85"/><polygon class="cls-2" points="828.48 35 835.48 28 842.37 34.88 828.48 35"/><polygon class="cls-2" points="828.42 18.04 835.42 25.04 842.3 18.15 828.42 18.04"/><polygon class="cls-2" points="843.82 33.44 836.82 26.44 843.71 19.56 843.82 33.44"/><polygon class="cls-2" points="826.9 33.44 833.9 26.44 827.01 19.56 826.9 33.44"/><line class="cls-1" x1="1045.46" y1="40.38" x2="892.98" y2="40.38"/><polygon class="cls-2" points="984.97 35.01 977.97 28.01 971.09 34.89 984.97 35.01"/><polygon class="cls-2" points="985.04 18.05 978.03 25.05 971.15 18.17 985.04 18.05"/><polygon class="cls-2" points="969.63 33.46 976.63 26.45 969.75 19.57 969.63 33.46"/><polygon class="cls-2" points="986.56 33.46 979.56 26.45 986.44 19.57 986.56 33.46"/><polygon class="cls-2" points="964.31 35.41 957.31 28.41 950.43 35.29 964.31 35.41"/><polygon class="cls-2" points="964.38 18.45 957.38 25.45 950.49 18.57 964.38 18.45"/><polygon class="cls-2" points="948.97 33.85 955.97 26.85 949.09 19.97 948.97 33.85"/><polygon class="cls-2" points="965.9 33.85 958.9 26.85 965.78 19.97 965.9 33.85"/><polygon class="cls-2" points="944.16 35 937.16 28 930.28 34.88 944.16 35"/><polygon class="cls-2" points="944.23 18.04 937.23 25.04 930.34 18.15 944.23 18.04"/><polygon class="cls-2" points="928.82 33.44 935.82 26.44 928.94 19.56 928.82 33.44"/><polygon class="cls-2" points="945.75 33.44 938.75 26.44 945.63 19.56 945.75 33.44"/><line class="cls-1" x1="1055.99" y1="40.38" x2="1208.46" y2="40.38"/><polygon class="cls-2" points="1116.47 35.01 1123.47 28.01 1130.36 34.89 1116.47 35.01"/><polygon class="cls-2" points="1116.41 18.05 1123.41 25.05 1130.29 18.17 1116.41 18.05"/><polygon class="cls-2" points="1131.81 33.46 1124.81 26.45 1131.69 19.57 1131.81 33.46"/><polygon class="cls-2" points="1114.89 33.46 1121.89 26.45 1115 19.57 1114.89 33.46"/><polygon class="cls-2" points="1137.13 35.41 1144.13 28.41 1151.02 35.29 1137.13 35.41"/><polygon class="cls-2" points="1137.07 18.45 1144.07 25.45 1150.95 18.57 1137.07 18.45"/><polygon class="cls-2" points="1152.47 33.85 1145.47 26.85 1152.35 19.97 1152.47 33.85"/><polygon class="cls-2" points="1135.55 33.85 1142.55 26.85 1135.66 19.97 1135.55 33.85"/><polygon class="cls-2" points="1157.28 35 1164.28 28 1171.16 34.88 1157.28 35"/><polygon class="cls-2" points="1157.22 18.04 1164.22 25.04 1171.1 18.15 1157.22 18.04"/><polygon class="cls-2" points="1172.62 33.44 1165.62 26.44 1172.5 19.56 1172.62 33.44"/><polygon class="cls-2" points="1155.69 33.44 1162.7 26.44 1155.81 19.56 1155.69 33.44"/><line class="cls-1" x1="1350.37" y1="40.38" x2="1502.85" y2="40.38"/><polygon class="cls-2" points="1410.86 35.01 1417.86 28.01 1424.74 34.89 1410.86 35.01"/><polygon class="cls-2" points="1410.79 18.05 1417.8 25.05 1424.68 18.17 1410.79 18.05"/><polygon class="cls-2" points="1426.2 33.46 1419.2 26.45 1426.08 19.57 1426.2 33.46"/><polygon class="cls-2" points="1409.27 33.46 1416.27 26.45 1409.39 19.57 1409.27 33.46"/><polygon class="cls-2" points="1431.52 35.41 1438.52 28.41 1445.4 35.29 1431.52 35.41"/><polygon class="cls-2" points="1431.45 18.45 1438.45 25.45 1445.34 18.57 1431.45 18.45"/><polygon class="cls-2" points="1446.86 33.85 1439.86 26.85 1446.74 19.97 1446.86 33.85"/><polygon class="cls-2" points="1429.93 33.85 1436.93 26.85 1430.05 19.97 1429.93 33.85"/><polygon class="cls-2" points="1451.67 35 1458.67 28 1465.55 34.88 1451.67 35"/><polygon class="cls-2" points="1451.6 18.04 1458.6 25.04 1465.49 18.15 1451.6 18.04"/><polygon class="cls-2" points="1467.01 33.44 1460.01 26.44 1466.89 19.56 1467.01 33.44"/><polygon class="cls-2" points="1450.08 33.44 1457.08 26.44 1450.2 19.56 1450.08 33.44"/><line class="cls-1" x1="1668.64" y1="40.38" x2="1516.16" y2="40.38"/><polygon class="cls-2" points="1608.16 35.01 1601.15 28.01 1594.27 34.89 1608.16 35.01"/><polygon class="cls-2" points="1608.22 18.05 1601.22 25.05 1594.34 18.17 1608.22 18.05"/><polygon class="cls-2" points="1592.82 33.46 1599.82 26.45 1592.93 19.57 1592.82 33.46"/><polygon class="cls-2" points="1609.74 33.46 1602.74 26.45 1609.62 19.57 1609.74 33.46"/><polygon class="cls-2" points="1587.5 35.41 1580.5 28.41 1573.61 35.29 1587.5 35.41"/><polygon class="cls-2" points="1587.56 18.45 1580.56 25.45 1573.68 18.57 1587.56 18.45"/><polygon class="cls-2" points="1572.16 33.85 1579.16 26.85 1572.27 19.97 1572.16 33.85"/><polygon class="cls-2" points="1589.08 33.85 1582.08 26.85 1588.96 19.97 1589.08 33.85"/><polygon class="cls-2" points="1567.35 35 1560.35 28 1553.46 34.88 1567.35 35"/><polygon class="cls-2" points="1567.41 18.04 1560.41 25.04 1553.53 18.15 1567.41 18.04"/><polygon class="cls-2" points="1552.01 33.44 1559.01 26.44 1552.12 19.56 1552.01 33.44"/><polygon class="cls-2" points="1568.93 33.44 1561.93 26.44 1568.82 19.56 1568.93 33.44"/><line class="cls-1" x1="1679.17" y1="40.38" x2="1831.65" y2="40.38"/><polygon class="cls-2" points="1739.66 35.01 1746.66 28.01 1753.54 34.89 1739.66 35.01"/><polygon class="cls-2" points="1739.59 18.05 1746.59 25.05 1753.48 18.17 1739.59 18.05"/><polygon class="cls-2" points="1755 33.46 1748 26.45 1754.88 19.57 1755 33.46"/><polygon class="cls-2" points="1738.07 33.46 1745.07 26.45 1738.19 19.57 1738.07 33.46"/><polygon class="cls-2" points="1760.31 35.41 1767.32 28.41 1774.2 35.29 1760.31 35.41"/><polygon class="cls-2" points="1760.25 18.45 1767.25 25.45 1774.13 18.57 1760.25 18.45"/><polygon class="cls-2" points="1775.66 33.85 1768.65 26.85 1775.54 19.97 1775.66 33.85"/><polygon class="cls-2" points="1758.73 33.85 1765.73 26.85 1758.85 19.97 1758.73 33.85"/><polygon class="cls-2" points="1780.46 35 1787.46 28 1794.35 34.88 1780.46 35"/><polygon class="cls-2" points="1780.4 18.04 1787.4 25.04 1794.28 18.15 1780.4 18.04"/><polygon class="cls-2" points="1795.81 33.44 1788.81 26.44 1795.69 19.56 1795.81 33.44"/><polygon class="cls-2" points="1778.88 33.44 1785.88 26.44 1779 19.56 1778.88 33.44"/><path class="cls-2" d="M727.27,53.63l6.4-.14a.13.13,0,0,1,.13.13.13.13,0,0,1-.13.14h0Z"/><path class="cls-2" d="M746.5,53.23,759.34,53a.66.66,0,0,1,.68.65.67.67,0,0,1-.65.69h0L746.5,54a.41.41,0,0,1-.39-.41A.39.39,0,0,1,746.5,53.23Z"/><path class="cls-2" d="M772.18,52.72,785,52.5a1.13,1.13,0,1,1,0,2.25h0l-12.83-.22a.91.91,0,0,1,0-1.81Z"/><path class="cls-2" d="M797.85,52.28l12.83-.22a1.57,1.57,0,0,1,.06,3.13h-.06L797.85,55a1.35,1.35,0,0,1,0-2.7Z"/><path class="cls-2" d="M823.52,51.88l12.84-.18a1.93,1.93,0,0,1,0,3.86h0l-12.84-.19a1.75,1.75,0,0,1,0-3.49Z"/><path class="cls-2" d="M849.19,51.51,862,51.33a2.3,2.3,0,1,1,.06,4.59H862l-12.84-.18a2.12,2.12,0,0,1,0-4.23Z"/><path class="cls-2" d="M874.87,51.16,887.7,51a2.61,2.61,0,1,1,.06,5.21h-.06l-12.83-.14a2.47,2.47,0,0,1,0-4.93Z"/><path class="cls-2" d="M900.54,50.88l12.83-.15a2.9,2.9,0,1,1,.07,5.79h-.07l-12.83-.14a2.75,2.75,0,0,1,0-5.5Z"/><path class="cls-2" d="M926.21,50.59l12.84-.15a3.19,3.19,0,0,1,.07,6.37h-.07l-12.84-.14a3,3,0,0,1,0-6.08Z"/><path class="cls-2" d="M951.88,50.31l12.84-.1a3.42,3.42,0,0,1,0,6.83h0l-12.84-.1a3.32,3.32,0,0,1,0-6.63Z"/><path class="cls-2" d="M977.55,50.11,990.39,50a3.63,3.63,0,1,1,.06,7.25h-.06l-12.84-.1a3.52,3.52,0,0,1,0-7Z"/><path class="cls-2" d="M1003.23,49.9l12.83-.11a3.84,3.84,0,0,1,.07,7.67h-.07l-12.83-.1a3.73,3.73,0,0,1,0-7.46Z"/><path class="cls-2" d="M1028.9,49.69l12.84-.1a4,4,0,1,1,.06,8.08h-.06l-12.84-.11a3.94,3.94,0,0,1,0-7.87Z"/><path class="cls-2" d="M1054.57,49.52l12.84-.06a4.17,4.17,0,1,1,0,8.34h0l-12.84-.07a4.11,4.11,0,0,1,0-8.21Z"/><path class="cls-2" d="M1080.24,49.4l12.84-.07a4.3,4.3,0,1,1,0,8.59h0l-12.84-.06a4.23,4.23,0,0,1,0-8.46Z"/><path class="cls-2" d="M1105.92,49.27l12.83-.06a4.42,4.42,0,0,1,0,8.84h0L1105.92,58a4.36,4.36,0,0,1,0-8.71Z"/><path class="cls-2" d="M1131.59,49.15l12.84-.07a4.55,4.55,0,0,1,0,9.09h0l-12.84-.06a4.48,4.48,0,0,1,0-9Z"/><path class="cls-2" d="M1157.26,49l12.84,0a4.62,4.62,0,0,1,0,9.23h0l-12.84,0a4.6,4.6,0,0,1,0-9.19Z"/><path class="cls-2" d="M1182.93,49l12.84,0a4.66,4.66,0,1,1,0,9.32h0l-12.84,0a4.64,4.64,0,0,1,0-9.27Z"/><path class="cls-2" d="M1208.61,49l12.83,0a4.7,4.7,0,0,1,0,9.4h0l-12.83,0a4.68,4.68,0,1,1,0-9.36Z"/><path class="cls-2" d="M1234.28,48.91l12.83,0a4.74,4.74,0,1,1,0,9.48h0l-12.83,0a4.72,4.72,0,0,1,0-9.44Z"/><path class="cls-2" d="M1260,48.86l12.84,0a4.79,4.79,0,0,1,0,9.57h0l-12.84,0a4.77,4.77,0,0,1,0-9.53Z"/><path class="cls-2" d="M1285.62,48.84l12.84,0a4.77,4.77,0,0,1,0,9.54l-12.84,0a4.79,4.79,0,0,1,0-9.58Z"/><path class="cls-2" d="M1311.3,48.88l12.83,0a4.73,4.73,0,0,1,0,9.45l-12.83,0a4.75,4.75,0,1,1,0-9.49Z"/><path class="cls-2" d="M1337,48.92l12.83,0a4.69,4.69,0,0,1,0,9.37l-12.83,0a4.71,4.71,0,0,1,0-9.41Z"/><path class="cls-2" d="M1362.64,49l12.84,0a4.65,4.65,0,0,1,0,9.29l-12.84,0a4.67,4.67,0,1,1,0-9.33Z"/><path class="cls-2" d="M1388.31,49l12.84,0a4.6,4.6,0,0,1,0,9.2l-12.84,0a4.62,4.62,0,1,1,0-9.24Z"/><path class="cls-2" d="M1414,49.07l12.83.06a4.5,4.5,0,0,1,0,9l-12.83.06a4.56,4.56,0,0,1,0-9.11Z"/><path class="cls-2" d="M1439.66,49.2l12.83.06a4.37,4.37,0,0,1,0,8.74l-12.83.06a4.43,4.43,0,1,1-.05-8.86Z"/><path class="cls-2" d="M1465.33,49.32l12.84.07a4.24,4.24,0,0,1,0,8.48l-12.84.06a4.31,4.31,0,1,1,0-8.61Z"/><path class="cls-2" d="M1491,49.45l12.84.06a4.12,4.12,0,0,1,0,8.23l-12.84.07a4.18,4.18,0,0,1,0-8.36Z"/><path class="cls-2" d="M1516.68,49.57l12.83.11a4,4,0,0,1,0,7.9l-12.83.1a4.06,4.06,0,0,1-.07-8.11Z"/><path class="cls-2" d="M1542.35,49.78l12.83.1a3.75,3.75,0,0,1,0,7.49l-12.83.1a3.85,3.85,0,0,1-.07-7.69Z"/><path class="cls-2" d="M1568,50l12.84.1a3.54,3.54,0,0,1,0,7.07l-12.84.11A3.64,3.64,0,0,1,1568,50Z"/><path class="cls-2" d="M1593.69,50.2l12.84.1a3.33,3.33,0,0,1,0,6.65l-12.84.11a3.43,3.43,0,1,1,0-6.86Z"/><path class="cls-2" d="M1619.36,50.43l12.84.14a3.06,3.06,0,0,1,0,6.11l-12.84.15a3.2,3.2,0,0,1-.07-6.4Z"/><path class="cls-2" d="M1645,50.72l12.83.14a2.77,2.77,0,0,1,0,5.53l-12.83.15a2.91,2.91,0,0,1-.07-5.82Z"/><path class="cls-2" d="M1670.71,51l12.84.14a2.48,2.48,0,0,1,0,5l-12.84.15a2.62,2.62,0,1,1-.06-5.24Z"/><path class="cls-2" d="M1696.38,51.32l12.84.18a2.13,2.13,0,0,1,0,4.25l-12.84.19a2.31,2.31,0,0,1-.06-4.62Z"/><path class="cls-2" d="M1722.05,51.69l12.84.18a1.76,1.76,0,0,1,0,3.51l-12.84.19a1.94,1.94,0,0,1,0-3.88Z"/><path class="cls-2" d="M1747.73,52.06l12.83.21a1.36,1.36,0,0,1,0,2.71l-12.83.22a1.57,1.57,0,0,1-.06-3.14Z"/><path class="cls-2" d="M1773.4,52.49l12.84.23a.9.9,0,0,1,.89.92.92.92,0,0,1-.89.9l-12.84.22a1.14,1.14,0,0,1,0-2.27Z"/><path class="cls-2" d="M1799.07,53l12.84.27a.4.4,0,0,1,.39.42.4.4,0,0,1-.39.39l-12.84.27a.68.68,0,1,1,0-1.35Z"/><path class="cls-2" d="M1824.74,53.49l6.4.14-6.4.13a.13.13,0,0,1-.13-.13.13.13,0,0,1,.13-.14Z"/><path class="cls-2" d="M727.27,4.79l6.4-.13a.12.12,0,0,1,.13.13.13.13,0,0,1-.13.13h0Z"/><path class="cls-2" d="M746.5,4.39l12.84-.27a.67.67,0,0,1,0,1.34h0L746.5,5.19a.4.4,0,0,1-.39-.41A.39.39,0,0,1,746.5,4.39Z"/><path class="cls-2" d="M772.18,3.88,785,3.66a1.13,1.13,0,1,1,0,2.26h0l-12.83-.23a.91.91,0,0,1,0-1.81Z"/><path class="cls-2" d="M797.85,3.44l12.83-.21a1.56,1.56,0,1,1,.06,3.12h-.06l-12.83-.21a1.35,1.35,0,0,1,0-2.7Z"/><path class="cls-2" d="M823.52,3l12.84-.18a1.93,1.93,0,0,1,0,3.86h0l-12.84-.19a1.75,1.75,0,0,1,0-3.49Z"/><path class="cls-2" d="M849.19,2.68,862,2.49a2.3,2.3,0,1,1,.06,4.6H862L849.19,6.9a2.11,2.11,0,0,1,0-4.22Z"/><path class="cls-2" d="M874.87,2.33l12.83-.15a2.61,2.61,0,0,1,.06,5.22h-.06l-12.83-.15a2.46,2.46,0,0,1,0-4.92Z"/><path class="cls-2" d="M900.54,2l12.83-.15a2.91,2.91,0,0,1,2.93,2.87,2.88,2.88,0,0,1-2.86,2.92h-.07l-12.83-.14a2.75,2.75,0,0,1,0-5.5Z"/><path class="cls-2" d="M926.21,1.75l12.84-.14A3.18,3.18,0,0,1,939.12,8h-.07l-12.84-.14a3,3,0,0,1,0-6.08Z"/><path class="cls-2" d="M951.88,1.48l12.84-.11a3.42,3.42,0,0,1,0,6.84h0L951.88,8.1a3.31,3.31,0,0,1,0-6.62Z"/><path class="cls-2" d="M977.55,1.27l12.84-.11a3.63,3.63,0,1,1,.06,7.25h-.06l-12.84-.1a3.52,3.52,0,0,1,0-7Z"/><path class="cls-2" d="M1003.23,1.06l12.83-.1a3.83,3.83,0,1,1,.07,7.66h-.07l-12.83-.1a3.73,3.73,0,0,1,0-7.46Z"/><path class="cls-2" d="M1028.9.85l12.84-.1a4,4,0,1,1,.06,8.08h-.06l-12.84-.1a3.94,3.94,0,0,1,0-7.88Z"/><path class="cls-2" d="M1054.57.68l12.84-.06a4.17,4.17,0,1,1,0,8.34h0l-12.84-.07a4.11,4.11,0,0,1,0-8.21Z"/><path class="cls-2" d="M1080.24.56,1093.08.5a4.29,4.29,0,1,1,0,8.58h0L1080.24,9a4.23,4.23,0,0,1,0-8.46Z"/><path class="cls-2" d="M1105.92.43l12.83-.06a4.42,4.42,0,0,1,0,8.84h0l-12.83-.06a4.36,4.36,0,0,1,0-8.72Z"/><path class="cls-2" d="M1131.59.31l12.84-.07a4.55,4.55,0,0,1,0,9.09h0l-12.84-.06a4.48,4.48,0,0,1,0-9Z"/><path class="cls-2" d="M1157.26.19l12.84,0a4.62,4.62,0,0,1,0,9.24h0l-12.84,0a4.6,4.6,0,0,1,0-9.2Z"/><path class="cls-2" d="M1182.93.15l12.84,0a4.66,4.66,0,1,1,0,9.32h0l-12.84,0a4.64,4.64,0,0,1,0-9.28Z"/><path class="cls-2" d="M1208.61.11l12.83,0a4.7,4.7,0,0,1,0,9.4h0l-12.83,0a4.68,4.68,0,1,1,0-9.36Z"/><path class="cls-2" d="M1234.28.07l12.83,0a4.74,4.74,0,1,1,0,9.48h0l-12.83,0a4.72,4.72,0,0,1,0-9.44Z"/><path class="cls-2" d="M1260,0l12.84,0a4.78,4.78,0,1,1,0,9.56h0l-12.84,0A4.76,4.76,0,0,1,1260,0Z"/><path class="cls-2" d="M1285.62,0l12.84,0a4.77,4.77,0,0,1,0,9.54l-12.84,0a4.79,4.79,0,0,1,0-9.58Z"/><path class="cls-2" d="M1311.3,0l12.83,0a4.73,4.73,0,0,1,0,9.46l-12.83,0a4.75,4.75,0,1,1,0-9.5Z"/><path class="cls-2" d="M1337,.08l12.83,0a4.69,4.69,0,0,1,0,9.37l-12.83,0a4.71,4.71,0,0,1,0-9.41Z"/><path class="cls-2" d="M1362.64.13l12.84,0a4.64,4.64,0,0,1,0,9.28l-12.84,0a4.66,4.66,0,1,1,0-9.32Z"/><path class="cls-2" d="M1388.31.17l12.84,0a4.6,4.6,0,0,1,0,9.2l-12.84,0a4.62,4.62,0,1,1,0-9.24Z"/><path class="cls-2" d="M1414,.23l12.83.06a4.5,4.5,0,0,1,0,9L1414,9.35a4.56,4.56,0,0,1,0-9.12Z"/><path class="cls-2" d="M1439.66.36l12.83.06a4.37,4.37,0,0,1,0,8.74l-12.83.06a4.43,4.43,0,1,1-.05-8.86Z"/><path class="cls-2" d="M1465.33.48l12.84.07a4.24,4.24,0,0,1,0,8.48l-12.84.06a4.31,4.31,0,1,1,0-8.61Z"/><path class="cls-2" d="M1491,.61l12.84.06a4.12,4.12,0,0,1,0,8.23L1491,9a4.18,4.18,0,0,1,0-8.36Z"/><path class="cls-2" d="M1516.68.74l12.83.1a4,4,0,0,1,0,7.9l-12.83.1a4.05,4.05,0,1,1-.07-8.1Z"/><path class="cls-2" d="M1542.35.94l12.83.11a3.74,3.74,0,0,1,0,7.48l-12.83.11a3.85,3.85,0,0,1-.07-7.7Z"/><path class="cls-2" d="M1568,1.15l12.84.11a3.53,3.53,0,0,1,0,7.06L1568,8.43a3.64,3.64,0,0,1-.06-7.28Z"/><path class="cls-2" d="M1593.69,1.36l12.84.1a3.33,3.33,0,0,1,0,6.65l-12.84.11a3.43,3.43,0,1,1,0-6.86Z"/><path class="cls-2" d="M1619.36,1.59l12.84.15a3.05,3.05,0,0,1,0,6.1L1619.36,8a3.2,3.2,0,0,1-.07-6.4Z"/><path class="cls-2" d="M1645,1.88l12.83.15a2.76,2.76,0,0,1,0,5.52L1645,7.7a2.91,2.91,0,0,1-.07-5.82Z"/><path class="cls-2" d="M1670.71,2.17l12.84.15a2.47,2.47,0,0,1,0,4.94l-12.84.15a2.62,2.62,0,1,1-.06-5.24Z"/><path class="cls-2" d="M1696.38,2.48l12.84.19a2.12,2.12,0,0,1,0,4.24l-12.84.19a2.31,2.31,0,0,1-.06-4.62Z"/><path class="cls-2" d="M1722.05,2.85l12.84.18a1.77,1.77,0,0,1,1.73,1.78,1.74,1.74,0,0,1-1.73,1.73l-12.84.19a1.94,1.94,0,0,1,0-3.88Z"/><path class="cls-2" d="M1747.73,3.22l12.83.21a1.36,1.36,0,0,1,0,2.72l-12.83.21a1.57,1.57,0,0,1-.06-3.14Z"/><path class="cls-2" d="M1773.4,3.66l12.84.22a.9.9,0,0,1,.89.92.91.91,0,0,1-.89.9l-12.84.22a1.13,1.13,0,0,1-1.15-1.11,1.12,1.12,0,0,1,1.11-1.15Z"/><path class="cls-2" d="M1799.07,4.12l12.84.27a.39.39,0,0,1,.39.41.4.4,0,0,1-.39.39l-12.84.27a.67.67,0,1,1,0-1.34Z"/><path class="cls-2" d="M1824.74,4.65l6.4.14-6.4.13a.13.13,0,0,1-.13-.13.14.14,0,0,1,.13-.14Z"/><path class="cls-3" d="M311.82,1300.33c-5.48,9.34-9.57,19.53-9.57,33.82,0,14,4.09,24.17,9.57,33.51h-3.71a61.1,61.1,0,0,1,0-67.33Z"/><path class="cls-3" d="M350.89,1331.29V1335H323.94v26.64h-4.25v-55.21H356v3.78h-32v21.08Z"/><path class="cls-3" d="M400.84,1346.89c0,8.65-6.41,15.67-19,15.67-12.74,0-22.24-6.48-23-19h4.48c.77,9.42,6.94,15.29,18.45,15.29,10.42,0,14.59-5.41,14.59-11.89.08-8.73-5.94-10.51-17.91-13-9.65-2-17.37-5-17.37-14.67,0-8.8,7.25-13.82,18.06-13.82,11.51,0,19,5.87,19.77,16.37h-4.48c-.85-7.87-5.48-12.66-15.29-12.58-8.49,0-13.59,3.62-13.59,10,0,7.87,6.49,9.49,15.68,11.42C393.12,1333.14,400.84,1336.23,400.84,1346.89Z"/><path class="cls-3" d="M440.45,1331.29V1335H413.5v26.64h-4.25v-55.21h36.29v3.78h-32v21.08Z"/><path class="cls-3" d="M449.79,1367.66c5.4-9.34,9.57-19.54,9.57-33.82,0-14-4.17-24.17-9.57-33.51h3.63a60.7,60.7,0,0,1,0,67.33Z"/><rect class="cls-4" x="1.99" y="1258.29" width="1102.86" height="160.09"/><rect class="cls-5" x="263.53" y="1271.79" width="237.22" height="130.44"/><rect class="cls-5" x="13.47" y="1271.79" width="237.22" height="130.44"/><path class="cls-6" d="M68.27,1287.21H195.88a6,6,0,0,1,6,6v69.94a6,6,0,0,1-6,6H147.36v9.83h12.39v7.94H104.41v-7.94H116.8v-9.83H68.27a6,6,0,0,1-5.95-6v-69.94a6,6,0,0,1,5.95-6Zm71.16,91.67v-9.83h-14.7v9.83Zm-22.63-20v-2.45h3.31v-1.61a11.45,11.45,0,0,0,1.4-.58l2.19,2.19h1.36l4.6-4.6-2.87-2.87a11.45,11.45,0,0,0,.58-1.4h4.06v-7.47h-4.06a12.15,12.15,0,0,0-.58-1.4l2.87-2.87-5.28-5.28-2.87,2.87a11.45,11.45,0,0,0-1.4-.58v-4.06h-7.47v4.06a11.45,11.45,0,0,0-1.4.58l-2.87-2.87-5.28,5.28,2.87,2.87a11.45,11.45,0,0,0-.58,1.4h-4.06v7.47h4.06a11.45,11.45,0,0,0,.58,1.4l-2.87,2.87,5.28,5.28,2.87-2.87a11.45,11.45,0,0,0,1.4.58v4.06Zm21.63-61.44h9.71v5.27a16,16,0,0,1,1.81.75l3.73-3.73,6.86,6.87-3.73,3.73a14.36,14.36,0,0,1,.75,1.81h5.28v9.7h-5.28a14.5,14.5,0,0,1-.75,1.82l3.73,3.73-6.86,6.86-3.73-3.73a14.36,14.36,0,0,1-1.81.75v5.28h-9.71v-5.28a14.36,14.36,0,0,1-1.81-.75l-3.73,3.73-6.86-6.86,3.73-3.73a15.14,15.14,0,0,1-.75-1.82h-5.28v-9.7H129a13.77,13.77,0,0,1,.75-1.81l-3.73-3.73,6.86-6.87,3.73,3.73a16,16,0,0,1,1.81-.75v-5.27Zm4.85,10.85a8.7,8.7,0,1,1-8.69,8.7,8.7,8.7,0,0,1,8.69-8.7Zm-26.9,28.84a6.7,6.7,0,1,1-6.7,6.69A6.7,6.7,0,0,1,116.38,1337.1Z"/></g></g></svg>