<svg xmlns="http://www.w3.org/2000/svg" viewBox="0 0 1106.83 164.06"><defs><style>.cls-1,.cls-5,.cls-6{fill:none;}.cls-1,.cls-4,.cls-5,.cls-6{stroke:#fff8d4;stroke-linecap:round;stroke-linejoin:round;}.cls-1{stroke-width:1.09px;}.cls-2{fill:#feffe9;}.cls-3,.cls-4,.cls-7{fill:#fff8d4;}.cls-4{stroke-width:8.68px;}.cls-5{stroke-width:3.97px;}.cls-6{stroke-width:6.39px;}.cls-7{fill-rule:evenodd;}</style></defs><g id="Layer_2" data-name="Layer 2"><g id="Layer_1-2" data-name="Layer 1"><line class="cls-1" x1="520.52" y1="125.3" x2="598.71" y2="125.3"/><polygon class="cls-2" points="551.54 122.55 555.13 118.96 558.66 122.49 551.54 122.55"/><polygon class="cls-3" points="551.5 113.85 555.09 117.44 558.62 113.91 551.5 113.85"/><polygon class="cls-3" points="559.4 121.75 555.81 118.16 559.34 114.63 559.4 121.75"/><polygon class="cls-3" points="550.72 121.75 554.31 118.16 550.78 114.63 550.72 121.75"/><polygon class="cls-2" points="562.13 122.75 565.72 119.16 569.25 122.69 562.13 122.75"/><polygon class="cls-3" points="562.1 114.06 565.69 117.65 569.22 114.12 562.1 114.06"/><polygon class="cls-3" points="570 121.96 566.41 118.37 569.94 114.84 570 121.96"/><polygon class="cls-3" points="561.32 121.96 564.91 118.37 561.38 114.84 561.32 121.96"/><polygon class="cls-2" points="572.46 122.54 576.05 118.95 579.58 122.48 572.46 122.54"/><polygon class="cls-3" points="572.43 113.85 576.02 117.44 579.55 113.91 572.43 113.85"/><polygon class="cls-3" points="580.33 121.75 576.74 118.16 580.27 114.63 580.33 121.75"/><polygon class="cls-3" points="571.65 121.75 575.24 118.16 571.71 114.63 571.65 121.75"/><line class="cls-1" x1="683.72" y1="125.3" x2="605.53" y2="125.3"/><polygon class="cls-2" points="652.71 122.55 649.12 118.96 645.59 122.49 652.71 122.55"/><polygon class="cls-3" points="652.74 113.85 649.15 117.44 645.62 113.91 652.74 113.85"/><polygon class="cls-3" points="644.84 121.75 648.43 118.16 644.9 114.63 644.84 121.75"/><polygon class="cls-3" points="653.52 121.75 649.93 118.16 653.46 114.63 653.52 121.75"/><polygon class="cls-2" points="642.11 122.75 638.52 119.16 634.99 122.69 642.11 122.75"/><polygon class="cls-3" points="642.14 114.06 638.55 117.65 635.03 114.12 642.14 114.06"/><polygon class="cls-3" points="634.25 121.96 637.84 118.37 634.31 114.84 634.25 121.96"/><polygon class="cls-3" points="642.92 121.96 639.34 118.37 642.87 114.84 642.92 121.96"/><polygon class="cls-2" points="631.78 122.54 628.19 118.95 624.66 122.48 631.78 122.54"/><polygon class="cls-3" points="631.81 113.85 628.22 117.44 624.69 113.91 631.81 113.85"/><polygon class="cls-3" points="623.91 121.75 627.5 118.16 623.97 114.63 623.91 121.75"/><polygon class="cls-3" points="632.59 121.75 629 118.16 632.53 114.63 632.59 121.75"/><line class="cls-1" x1="689.12" y1="125.3" x2="767.31" y2="125.3"/><polygon class="cls-2" points="720.13 122.55 723.73 118.96 727.25 122.49 720.13 122.55"/><polygon class="cls-3" points="720.1 113.85 723.69 117.44 727.22 113.91 720.1 113.85"/><polygon class="cls-3" points="728 121.75 724.41 118.16 727.94 114.63 728 121.75"/><polygon class="cls-3" points="719.32 121.75 722.91 118.16 719.38 114.63 719.32 121.75"/><polygon class="cls-2" points="730.73 122.75 734.32 119.16 737.85 122.69 730.73 122.75"/><polygon class="cls-3" points="730.7 114.06 734.28 117.65 737.82 114.12 730.7 114.06"/><polygon class="cls-3" points="738.6 121.96 735 118.37 738.53 114.84 738.6 121.96"/><polygon class="cls-3" points="729.91 121.96 733.5 118.37 729.98 114.84 729.91 121.96"/><polygon class="cls-2" points="741.06 122.54 744.65 118.95 748.18 122.48 741.06 122.54"/><polygon class="cls-3" points="741.03 113.85 744.62 117.44 748.15 113.91 741.03 113.85"/><polygon class="cls-3" points="748.93 121.75 745.34 118.16 748.87 114.63 748.93 121.75"/><polygon class="cls-3" points="740.25 121.75 743.84 118.16 740.31 114.63 740.25 121.75"/><line class="cls-1" x1="840.07" y1="125.3" x2="918.26" y2="125.3"/><polygon class="cls-2" points="871.09 122.55 874.68 118.96 878.21 122.49 871.09 122.55"/><polygon class="cls-3" points="871.06 113.85 874.65 117.44 878.17 113.91 871.06 113.85"/><polygon class="cls-3" points="878.96 121.75 875.37 118.16 878.89 114.63 878.96 121.75"/><polygon class="cls-3" points="870.28 121.75 873.87 118.16 870.34 114.63 870.28 121.75"/><polygon class="cls-2" points="881.68 122.75 885.27 119.16 888.8 122.69 881.68 122.75"/><polygon class="cls-3" points="881.65 114.06 885.24 117.65 888.77 114.12 881.65 114.06"/><polygon class="cls-3" points="889.55 121.96 885.96 118.37 889.49 114.84 889.55 121.96"/><polygon class="cls-3" points="880.87 121.96 884.46 118.37 880.93 114.84 880.87 121.96"/><polygon class="cls-2" points="892.01 122.54 895.6 118.95 899.13 122.48 892.01 122.54"/><polygon class="cls-3" points="891.98 113.85 895.57 117.44 899.1 113.91 891.98 113.85"/><polygon class="cls-3" points="899.88 121.75 896.29 118.16 899.82 114.63 899.88 121.75"/><polygon class="cls-3" points="891.2 121.75 894.79 118.16 891.26 114.63 891.2 121.75"/><line class="cls-1" x1="1003.27" y1="125.3" x2="925.09" y2="125.3"/><polygon class="cls-2" points="972.26 122.55 968.67 118.96 965.14 122.49 972.26 122.55"/><polygon class="cls-3" points="972.29 113.85 968.7 117.44 965.17 113.91 972.29 113.85"/><polygon class="cls-3" points="964.39 121.75 967.98 118.16 964.45 114.63 964.39 121.75"/><polygon class="cls-3" points="973.07 121.75 969.48 118.16 973.01 114.63 973.07 121.75"/><polygon class="cls-2" points="961.66 122.75 958.08 119.16 954.54 122.69 961.66 122.75"/><polygon class="cls-3" points="961.7 114.06 958.11 117.65 954.58 114.12 961.7 114.06"/><polygon class="cls-3" points="953.8 121.96 957.39 118.37 953.86 114.84 953.8 121.96"/><polygon class="cls-3" points="962.48 121.96 958.89 118.37 962.42 114.84 962.48 121.96"/><polygon class="cls-2" points="951.33 122.54 947.74 118.95 944.21 122.48 951.33 122.54"/><polygon class="cls-3" points="951.37 113.85 947.77 117.44 944.25 113.91 951.37 113.85"/><polygon class="cls-3" points="943.47 121.75 947.06 118.16 943.53 114.63 943.47 121.75"/><polygon class="cls-3" points="952.14 121.75 948.55 118.16 952.09 114.63 952.14 121.75"/><line class="cls-1" x1="1008.67" y1="125.3" x2="1086.86" y2="125.3"/><polygon class="cls-2" points="1039.69 122.55 1043.28 118.96 1046.81 122.49 1039.69 122.55"/><polygon class="cls-3" points="1039.65 113.85 1043.24 117.44 1046.77 113.91 1039.65 113.85"/><polygon class="cls-3" points="1047.55 121.75 1043.96 118.16 1047.49 114.63 1047.55 121.75"/><polygon class="cls-3" points="1038.88 121.75 1042.46 118.16 1038.93 114.63 1038.88 121.75"/><polygon class="cls-2" points="1050.28 122.75 1053.87 119.16 1057.4 122.69 1050.28 122.75"/><polygon class="cls-3" points="1050.25 114.06 1053.84 117.65 1057.37 114.12 1050.25 114.06"/><polygon class="cls-3" points="1058.15 121.96 1054.56 118.37 1058.09 114.84 1058.15 121.96"/><polygon class="cls-3" points="1049.47 121.96 1053.06 118.37 1049.53 114.84 1049.47 121.96"/><polygon class="cls-2" points="1060.61 122.54 1064.2 118.95 1067.73 122.48 1060.61 122.54"/><polygon class="cls-3" points="1060.58 113.85 1064.17 117.44 1067.7 113.91 1060.58 113.85"/><polygon class="cls-3" points="1068.48 121.75 1064.89 118.16 1068.42 114.63 1068.48 121.75"/><polygon class="cls-3" points="1059.8 121.75 1063.39 118.16 1059.86 114.63 1059.8 121.75"/><path class="cls-3" d="M520.56,132.1l3.28-.07a.07.07,0,0,1,.07.07.09.09,0,0,1-.06.07h0Z"/><path class="cls-3" d="M530.42,131.89l6.59-.14a.35.35,0,0,1,.35.34.35.35,0,0,1-.34.35h0l-6.59-.14a.2.2,0,0,1-.2-.21A.21.21,0,0,1,530.42,131.89Z"/><path class="cls-3" d="M543.59,131.64l6.58-.1a.56.56,0,0,1,.57.55.57.57,0,0,1-.55.57h0l-6.58-.11a.46.46,0,0,1-.45-.46A.45.45,0,0,1,543.59,131.64Z"/><path class="cls-3" d="M556.75,131.44l6.59-.11a.77.77,0,0,1,.77.76.76.76,0,0,1-.75.77h0l-6.59-.1a.67.67,0,0,1-.65-.67A.66.66,0,0,1,556.75,131.44Z"/><path class="cls-3" d="M569.92,131.23l6.58-.1a1,1,0,0,1,1,1,1,1,0,0,1-1,1h0l-6.58-.1a.87.87,0,0,1,0-1.73Z"/><path class="cls-3" d="M583.08,131l6.58-.11a1.18,1.18,0,0,1,0,2.35h0l-6.58-.1a1.07,1.07,0,0,1,0-2.14Z"/><path class="cls-3" d="M596.25,130.83l6.58-.07a1.34,1.34,0,1,1,0,2.67h0l-6.58-.07a1.27,1.27,0,0,1,0-2.53Z"/><path class="cls-3" d="M609.41,130.69l6.58-.08a1.49,1.49,0,1,1,0,3h0l-6.58-.07a1.41,1.41,0,0,1,0-2.82Z"/><path class="cls-3" d="M622.57,130.54l6.59-.08a1.64,1.64,0,1,1,0,3.27h0l-6.59-.07a1.56,1.56,0,0,1,0-3.12Z"/><path class="cls-3" d="M635.74,130.4l6.58-.06a1.76,1.76,0,0,1,0,3.51h0l-6.58,0a1.7,1.7,0,0,1,0-3.4Z"/><path class="cls-3" d="M648.9,130.29l6.58,0a1.86,1.86,0,1,1,0,3.72h0l-6.58-.06a1.81,1.81,0,0,1,0-3.61Z"/><path class="cls-3" d="M662.07,130.18l6.58-.05a2,2,0,1,1,0,3.93h0l-6.58-.05a1.92,1.92,0,0,1,0-3.83Z"/><path class="cls-3" d="M675.23,130.08l6.58-.05a2.07,2.07,0,1,1,0,4.14h0l-6.58,0a2,2,0,0,1,0-4Z"/><path class="cls-3" d="M688.39,130l6.59,0a2.14,2.14,0,0,1,0,4.27h0l-6.59,0a2.11,2.11,0,0,1,0-4.21Z"/><path class="cls-3" d="M701.56,129.93l6.58,0a2.2,2.2,0,1,1,0,4.4h0l-6.58,0a2.17,2.17,0,0,1,0-4.34Z"/><path class="cls-3" d="M714.72,129.86l6.58,0a2.27,2.27,0,0,1,0,4.53h0l-6.58,0a2.24,2.24,0,0,1,0-4.47Z"/><path class="cls-3" d="M727.89,129.8l6.58,0a2.33,2.33,0,0,1,0,4.66h0l-6.58,0a2.3,2.3,0,0,1,0-4.6Z"/><path class="cls-3" d="M741.05,129.74h6.58a2.37,2.37,0,0,1,0,4.73h-6.59a2.36,2.36,0,0,1,0-4.71Z"/><path class="cls-3" d="M754.22,129.72h6.58a2.39,2.39,0,1,1,0,4.78h-6.58a2.38,2.38,0,1,1,0-4.76Z"/><path class="cls-3" d="M767.38,129.7H774a2.41,2.41,0,1,1,0,4.82h-6.59a2.4,2.4,0,1,1,0-4.8Z"/><path class="cls-3" d="M780.54,129.68h6.59a2.43,2.43,0,1,1,0,4.86h-6.59a2.42,2.42,0,0,1,0-4.84Z"/><path class="cls-3" d="M793.71,129.65h6.58a2.46,2.46,0,0,1,0,4.91h-6.59a2.45,2.45,0,0,1,0-4.89Z"/><path class="cls-3" d="M806.87,129.64h6.58a2.45,2.45,0,0,1,0,4.89h-6.58a2.46,2.46,0,1,1,0-4.91Z"/><path class="cls-3" d="M820,129.66h6.58a2.43,2.43,0,0,1,0,4.85H820a2.44,2.44,0,0,1,0-4.87Z"/><path class="cls-3" d="M833.2,129.68h6.58a2.41,2.41,0,0,1,0,4.81H833.2a2.42,2.42,0,1,1,0-4.83Z"/><path class="cls-3" d="M846.36,129.71H853a2.38,2.38,0,0,1,0,4.76h-6.59a2.39,2.39,0,1,1,0-4.78Z"/><path class="cls-3" d="M859.53,129.73h6.58a2.36,2.36,0,1,1,0,4.72h-6.58a2.37,2.37,0,1,1,0-4.74Z"/><path class="cls-3" d="M872.69,129.76l6.58,0a2.31,2.31,0,0,1,0,4.61l-6.58,0a2.34,2.34,0,1,1,0-4.67Z"/><path class="cls-3" d="M885.86,129.82l6.58,0a2.24,2.24,0,0,1,0,4.48l-6.58,0a2.28,2.28,0,0,1,0-4.55Z"/><path class="cls-3" d="M899,129.89l6.58,0a2.18,2.18,0,0,1,0,4.35l-6.58,0a2.21,2.21,0,1,1,0-4.41Z"/><path class="cls-3" d="M912.18,130l6.59,0a2.11,2.11,0,0,1,0,4.22l-6.59,0a2.15,2.15,0,0,1,0-4.29Z"/><path class="cls-3" d="M925.35,130l6.58,0a2,2,0,0,1,0,4.05l-6.58,0a2.08,2.08,0,1,1,0-4.15Z"/><path class="cls-3" d="M938.51,130.12l6.59.06a1.92,1.92,0,0,1,0,3.84l-6.59,0a2,2,0,0,1,0-3.95Z"/><path class="cls-3" d="M951.68,130.23l6.58.05a1.82,1.82,0,0,1,0,3.63l-6.58.05a1.87,1.87,0,0,1,0-3.73Z"/><path class="cls-3" d="M964.84,130.34l6.58,0a1.71,1.71,0,0,1,0,3.41l-6.58.06a1.76,1.76,0,0,1,0-3.52Z"/><path class="cls-3" d="M978,130.46l6.58.07a1.57,1.57,0,0,1,0,3.13l-6.58.08a1.64,1.64,0,1,1,0-3.28Z"/><path class="cls-3" d="M991.17,130.61l6.58.07a1.42,1.42,0,0,1,0,2.83l-6.58.08a1.49,1.49,0,1,1,0-3Z"/><path class="cls-3" d="M1004.33,130.75l6.59.08a1.26,1.26,0,0,1,1.25,1.28,1.28,1.28,0,0,1-1.25,1.26l-6.59.07a1.35,1.35,0,0,1,0-2.69Z"/><path class="cls-3" d="M1017.5,130.92l6.58.1a1.08,1.08,0,0,1,0,2.15l-6.58.11a1.18,1.18,0,0,1,0-2.36Z"/><path class="cls-3" d="M1030.66,131.12l6.58.11a.86.86,0,0,1,.86.88.88.88,0,0,1-.86.86l-6.58.1a1,1,0,0,1,0-1.95Z"/><path class="cls-3" d="M1043.83,131.33l6.58.1a.66.66,0,0,1,.65.68.65.65,0,0,1-.65.65l-6.58.1a.77.77,0,0,1,0-1.53Z"/><path class="cls-3" d="M1057,131.54l6.58.1a.44.44,0,0,1,.45.46.46.46,0,0,1-.45.46l-6.58.1a.57.57,0,0,1-.57-.55.56.56,0,0,1,.55-.57Z"/><path class="cls-3" d="M1070.15,131.75l6.59.14a.21.21,0,0,1,.2.21.2.2,0,0,1-.2.2l-6.59.14a.35.35,0,0,1-.35-.34.35.35,0,0,1,.34-.35Z"/><path class="cls-3" d="M1083.32,132l3.28.07-3.28.07a.07.07,0,0,1,0-.14Z"/><path class="cls-3" d="M520.56,107.05l3.28-.06a.06.06,0,0,1,.07.06.07.07,0,0,1-.06.07h0Z"/><path class="cls-3" d="M530.42,106.85l6.59-.14a.35.35,0,0,1,0,.69h0l-6.59-.14a.21.21,0,0,1-.2-.21A.21.21,0,0,1,530.42,106.85Z"/><path class="cls-3" d="M543.59,106.6l6.58-.1a.56.56,0,1,1,0,1.11h0l-6.58-.1a.46.46,0,0,1-.45-.46A.45.45,0,0,1,543.59,106.6Z"/><path class="cls-3" d="M556.75,106.39l6.59-.1a.76.76,0,0,1,.77.75.77.77,0,0,1-.75.78h0l-6.59-.11a.66.66,0,0,1-.65-.67A.68.68,0,0,1,556.75,106.39Z"/><path class="cls-3" d="M569.92,106.19l6.58-.1a1,1,0,1,1,0,1.93h0l-6.58-.1a.87.87,0,0,1,0-1.73Z"/><path class="cls-3" d="M583.08,106l6.58-.1a1.18,1.18,0,0,1,0,2.35h0l-6.58-.11A1.06,1.06,0,0,1,582,107,1.08,1.08,0,0,1,583.08,106Z"/><path class="cls-3" d="M596.25,105.79l6.58-.07a1.34,1.34,0,0,1,0,2.67h0l-6.58-.07a1.27,1.27,0,0,1,0-2.53Z"/><path class="cls-3" d="M609.41,105.64l6.58-.07a1.49,1.49,0,0,1,0,3h0l-6.58-.08A1.39,1.39,0,0,1,608,107,1.41,1.41,0,0,1,609.41,105.64Z"/><path class="cls-3" d="M622.57,105.5l6.59-.08a1.64,1.64,0,1,1,0,3.27h0l-6.59-.08a1.56,1.56,0,0,1,0-3.11Z"/><path class="cls-3" d="M635.74,105.35l6.58,0a1.76,1.76,0,0,1,0,3.51h0l-6.58-.06a1.7,1.7,0,0,1,0-3.4Z"/><path class="cls-3" d="M648.9,105.25l6.58,0a1.86,1.86,0,1,1,0,3.71h0l-6.58,0a1.81,1.81,0,0,1,0-3.61Z"/><path class="cls-3" d="M662.07,105.14l6.58,0a2,2,0,1,1,0,3.93h0l-6.58,0a1.92,1.92,0,0,1,0-3.83Z"/><path class="cls-3" d="M675.23,105l6.58-.06a2.08,2.08,0,0,1,0,4.15h0l-6.58-.06a2,2,0,0,1,0-4Z"/><path class="cls-3" d="M688.39,105l6.59,0a2.14,2.14,0,0,1,0,4.27h0l-6.59,0a2.11,2.11,0,0,1,0-4.21Z"/><path class="cls-3" d="M701.56,104.88l6.58,0a2.21,2.21,0,0,1,0,4.41h0l-6.58,0a2.17,2.17,0,0,1,0-4.34Z"/><path class="cls-3" d="M714.72,104.82l6.58,0a2.27,2.27,0,1,1,0,4.53h0l-6.58,0a2.24,2.24,0,0,1,0-4.47Z"/><path class="cls-3" d="M727.89,104.76l6.58,0a2.33,2.33,0,0,1,0,4.66h0l-6.58,0a2.3,2.3,0,0,1,0-4.59Z"/><path class="cls-3" d="M741.05,104.7h6.58a2.37,2.37,0,0,1,0,4.73h-6.59a2.36,2.36,0,0,1,0-4.71Z"/><path class="cls-3" d="M754.22,104.68h6.58a2.39,2.39,0,1,1,0,4.77h-6.58a2.38,2.38,0,1,1,0-4.75Z"/><path class="cls-3" d="M767.38,104.65H774a2.41,2.41,0,1,1,0,4.82h-6.59a2.4,2.4,0,1,1,0-4.8Z"/><path class="cls-3" d="M780.54,104.63h6.59a2.44,2.44,0,0,1,0,4.87h0l-6.59,0a2.42,2.42,0,0,1,0-4.84Z"/><path class="cls-3" d="M793.71,104.61h6.58a2.46,2.46,0,1,1,0,4.91h-6.59a2.45,2.45,0,0,1,0-4.89Z"/><path class="cls-3" d="M806.87,104.6h6.58a2.45,2.45,0,0,1,0,4.89h-6.58a2.46,2.46,0,0,1,0-4.91Z"/><path class="cls-3" d="M820,104.62h6.58a2.43,2.43,0,0,1,0,4.85H820a2.44,2.44,0,0,1,0-4.87Z"/><path class="cls-3" d="M833.2,104.64h6.58a2.41,2.41,0,0,1,0,4.81H833.2a2.42,2.42,0,1,1,0-4.83Z"/><path class="cls-3" d="M846.36,104.66H853a2.38,2.38,0,0,1,0,4.76l-6.59,0a2.4,2.4,0,0,1,0-4.79Z"/><path class="cls-3" d="M859.53,104.68h6.58a2.36,2.36,0,1,1,0,4.72h-6.58a2.37,2.37,0,1,1,0-4.74Z"/><path class="cls-3" d="M872.69,104.72l6.58,0a2.31,2.31,0,0,1,0,4.61l-6.58,0a2.34,2.34,0,1,1,0-4.67Z"/><path class="cls-3" d="M885.86,104.78l6.58,0a2.24,2.24,0,0,1,0,4.48l-6.58,0a2.28,2.28,0,0,1,0-4.55Z"/><path class="cls-3" d="M899,104.85l6.58,0a2.18,2.18,0,0,1,0,4.35l-6.58,0a2.21,2.21,0,1,1,0-4.41Z"/><path class="cls-3" d="M912.18,104.91l6.59,0a2.11,2.11,0,0,1,0,4.22l-6.59,0a2.15,2.15,0,0,1,0-4.29Z"/><path class="cls-3" d="M925.35,105l6.58,0a2,2,0,0,1,0,4l-6.58,0a2.08,2.08,0,1,1,0-4.15Z"/><path class="cls-3" d="M938.51,105.08l6.59,0a1.92,1.92,0,0,1,0,3.84l-6.59.06a2,2,0,0,1,0-4Z"/><path class="cls-3" d="M951.68,105.19l6.58,0a1.82,1.82,0,0,1,0,3.63l-6.58,0a1.87,1.87,0,1,1,0-3.73Z"/><path class="cls-3" d="M964.84,105.3l6.58,0a1.71,1.71,0,0,1,0,3.41l-6.58,0a1.76,1.76,0,0,1,0-3.51Z"/><path class="cls-3" d="M978,105.41l6.58.08a1.57,1.57,0,0,1,0,3.13l-6.58.07a1.64,1.64,0,1,1,0-3.28Z"/><path class="cls-3" d="M991.17,105.56l6.58.08a1.42,1.42,0,0,1,0,2.83l-6.58.08a1.5,1.5,0,0,1,0-3Z"/><path class="cls-3" d="M1004.33,105.71l6.59.08a1.26,1.26,0,0,1,1.25,1.28,1.27,1.27,0,0,1-1.25,1.25l-6.59.08a1.35,1.35,0,0,1,0-2.69Z"/><path class="cls-3" d="M1017.5,105.87l6.58.11a1.08,1.08,0,0,1,0,2.15l-6.58.1a1.18,1.18,0,0,1,0-2.36Z"/><path class="cls-3" d="M1030.66,106.08l6.58.1a.87.87,0,0,1,0,1.74l-6.58.11a1,1,0,0,1,0-2Z"/><path class="cls-3" d="M1043.83,106.29l6.58.1a.67.67,0,0,1,0,1.33l-6.58.1a.77.77,0,0,1,0-1.53Z"/><path class="cls-3" d="M1057,106.49l6.58.11a.46.46,0,0,1,0,.91l-6.58.11a.57.57,0,0,1-.57-.56.57.57,0,0,1,.55-.57Z"/><path class="cls-3" d="M1070.15,106.71l6.59.14a.2.2,0,0,1,.2.21.2.2,0,0,1-.2.2l-6.59.14a.35.35,0,0,1-.35-.34.35.35,0,0,1,.34-.35Z"/><path class="cls-3" d="M1083.32,107l3.28.06-3.28.07a.07.07,0,0,1-.07-.06.07.07,0,0,1,.07-.07Z"/><path class="cls-3" d="M1072.16,23.48h8.29c3.91,0,6.27,2.14,6.27,5.89,0,2.89-1.38,4.6-3.57,5.18v.05c4.41.9,2.81,8.91,3.82,9.25v.29h-4.6c-.87-.87.73-7.19-3-7.19h-2.76v7.19h-4.42Zm4.42,9.22h3c1.77,0,2.7-.75,2.7-2.49s-.93-2.48-2.7-2.48h-3Z"/><path class="cls-3" d="M537.29,38.07c0,4-2.56,6.53-7,6.53-4.6,0-8.07-2.74-8.07-7.48h4.48c0,2.4,1.55,3.29,3.54,3.29,1.65,0,2.49-.78,2.49-1.85,0-1.76-1.75-2.22-4.19-3.09-3.07-1-5.78-2.48-5.78-6.18,0-4.51,3-6.27,6.79-6.27,4.11,0,7.33,2.54,7.46,6.73h-4.48a2.75,2.75,0,0,0-3-2.54c-1.33,0-2.26.52-2.26,1.7,0,1.39,1,1.85,3.22,2.63C533.87,32.7,537.29,33.8,537.29,38.07Z"/><path class="cls-3" d="M546.61,44.6c-5.31,0-7.36-2.77-7.36-7.92V23.48h4.44v13.2c0,2.69,1,3.68,2.92,3.68s2.93-1,2.93-3.68V23.48H554v13.2C554,41.83,551.93,44.6,546.61,44.6Z"/><path class="cls-3" d="M556.79,23.48h8.54c3.67,0,5.59,1.67,5.59,5.2a4.3,4.3,0,0,1-2.73,4.39v.06c1.84.38,3.42,1.82,3.42,4.91,0,4.4-2.39,6.1-6,6.1h-8.79Zm7.39,8.35c1.23,0,2.21-.35,2.21-2s-1-2.05-2.21-2.05h-3v4.1Zm.12,8.06c1.84,0,2.78-.52,2.78-2.45S566.14,35,564.3,35h-3.08v4.88Z"/><path class="cls-3" d="M587.67,38.07c0,4-2.56,6.53-7,6.53-4.6,0-8.07-2.74-8.07-7.48h4.48c0,2.4,1.55,3.29,3.54,3.29,1.65,0,2.49-.78,2.49-1.85,0-1.76-1.75-2.22-4.18-3.09-3.08-1-5.78-2.48-5.78-6.18,0-4.51,3-6.27,6.79-6.27,4.11,0,7.33,2.54,7.45,6.73h-4.48a2.74,2.74,0,0,0-3-2.54c-1.33,0-2.27.52-2.27,1.7,0,1.39,1,1.85,3.23,2.63C584.25,32.7,587.67,33.8,587.67,38.07Z"/><path class="cls-3" d="M597.23,27.26c-2.92,0-3.81,2.66-3.81,6.54s.89,6.56,3.81,6.56c2.37,0,3.15-1.65,3.45-4h4.53c-.4,4.74-3.05,8.2-7.9,8.2-5.59,0-8.42-4.56-8.42-10.72,0-6.33,3-10.86,8.54-10.86,4.8,0,7.36,3.35,7.78,8.15h-4.53C600.36,28.91,599.57,27.26,597.23,27.26Z"/><path class="cls-3" d="M607.17,23.48h8.29c3.91,0,6.28,2.14,6.28,5.89,0,2.89-1.38,4.6-3.57,5.18v.05c4.4.9,2.8,8.91,3.81,9.25v.29h-4.6c-.86-.87.74-7.19-3-7.19H611.6v7.19h-4.43Zm4.43,9.22h3c1.77,0,2.71-.75,2.71-2.49s-.94-2.48-2.71-2.48h-3Z"/><path class="cls-3" d="M628.67,23.48V44.14h-4.43V23.48Z"/><path class="cls-3" d="M631.62,23.48h8.54c3.66,0,5.58,1.67,5.58,5.2A4.3,4.3,0,0,1,643,33.07v.06c1.85.38,3.42,1.82,3.42,4.91,0,4.4-2.39,6.1-6,6.1h-8.78ZM639,31.83c1.23,0,2.21-.35,2.21-2s-1-2.05-2.21-2.05h-3v4.1Zm.12,8.06c1.85,0,2.78-.52,2.78-2.45S641,35,639.12,35h-3.07v4.88Z"/><path class="cls-3" d="M660.65,31.4v4.24H653v4.25h9v4.25H648.54V23.48h13.34v4.25H653V31.4Z"/><path class="cls-3" d="M681.28,27.73h-5.12V23.48H690.8v4.25h-5.1V44.14h-4.42Z"/><path class="cls-3" d="M691.14,33.8c0-6.22,3.12-10.78,8.71-10.78s8.71,4.56,8.71,10.78-3.18,10.8-8.71,10.8S691.14,40,691.14,33.8Zm12.89,0c0-3.59-1-6.54-4.18-6.54s-4.19,2.95-4.19,6.54,1,6.56,4.19,6.56S704,37.41,704,33.8Z"/><path class="cls-3" d="M722.71,33.8c0-6.22,3.13-10.78,8.71-10.78s8.72,4.56,8.72,10.78S737,44.6,731.42,44.6,722.71,40,722.71,33.8Zm12.9,0c0-3.59-1-6.54-4.19-6.54s-4.18,2.95-4.18,6.54,1,6.56,4.18,6.56S735.61,37.41,735.61,33.8Z"/><path class="cls-3" d="M749.58,44.6c-5.32,0-7.36-2.77-7.36-7.92V23.48h4.43v13.2c0,2.69,1,3.68,2.93,3.68s2.93-1,2.93-3.68V23.48h4.42v13.2C756.93,41.83,754.89,44.6,749.58,44.6Z"/><path class="cls-3" d="M759.76,23.48h8.29c3.91,0,6.28,2.14,6.28,5.89,0,2.89-1.38,4.6-3.57,5.18v.05c4.4.9,2.8,8.91,3.81,9.25v.29H770c-.86-.87.74-7.19-3-7.19h-2.75v7.19h-4.43Zm4.43,9.22h3c1.77,0,2.7-.75,2.7-2.49s-.93-2.48-2.7-2.48h-3Z"/><path class="cls-3" d="M789.51,23.48h5.42l3.62,13.18h0l3.62-13.18h5.41V44.14h-4.18V31.28h-.05l-3.27,12.86H797l-3.27-12.86h0V44.14h-4.19Z"/><path class="cls-3" d="M809.83,33.8c0-6.22,3.13-10.78,8.71-10.78s8.71,4.56,8.71,10.78-3.17,10.8-8.71,10.8S809.83,40,809.83,33.8Zm12.9,0c0-3.59-1-6.54-4.19-6.54s-4.18,2.95-4.18,6.54,1,6.56,4.18,6.56S822.73,37.41,822.73,33.8Z"/><path class="cls-3" d="M829.46,23.48h4.43L840,35.76h.05V23.48h4.43V44.14h-4.43l-6.15-12.28h-.05V44.14h-4.43Z"/><path class="cls-3" d="M851.7,27.73h-5.12V23.48h14.64v4.25h-5.09V44.14H851.7Z"/><path class="cls-3" d="M867.71,23.48v8.09h6V23.48h4.43V44.14h-4.43V35.82h-6v8.32h-4.43V23.48Z"/><path class="cls-3" d="M885.54,23.48V39.89h7.83v4.25H881.12V23.48Z"/><path class="cls-3" d="M895.51,23.48l3.42,8.78h0l3.45-8.78h4.67l-5.93,13v7.63h-4.43V36.51l-6-13Z"/><path class="cls-3" d="M921.45,23.48h4.43L932,35.76h.05V23.48h4.43V44.14h-4.43l-6.15-12.28h0V44.14h-4.43Z"/><path class="cls-3" d="M951.56,31.4v4.24h-7.68v4.25h9.06v4.25H939.45V23.48h13.34v4.25h-8.91V31.4Z"/><path class="cls-3" d="M958.47,23.48l2.26,14h0l2.73-14h4.19l2.73,14h.05l2.26-14h4.43l-4.48,20.66h-4.43l-2.63-12.89h0L963,44.14h-4.43L954,23.48Z"/><path class="cls-3" d="M992.46,38.07c0,4-2.55,6.53-7,6.53-4.6,0-8.07-2.74-8.07-7.48h4.48c0,2.4,1.55,3.29,3.54,3.29,1.65,0,2.49-.78,2.49-1.85,0-1.76-1.75-2.22-4.19-3.09-3.07-1-5.78-2.48-5.78-6.18,0-4.51,3-6.27,6.79-6.27,4.11,0,7.34,2.54,7.46,6.73h-4.48a2.75,2.75,0,0,0-3-2.54c-1.33,0-2.26.52-2.26,1.7,0,1.39,1,1.85,3.22,2.63C989,32.7,992.46,33.8,992.46,38.07Z"/><path class="cls-3" d="M998.86,23.48V39.89h7.82v4.25H994.43V23.48Z"/><path class="cls-3" d="M1020.75,31.4v4.24h-7.68v4.25h9.06v4.25h-13.48V23.48H1022v4.25h-8.91V31.4Z"/><path class="cls-3" d="M1028.69,27.73h-5.11V23.48h14.64v4.25h-5.1V44.14h-4.43Z"/><path class="cls-3" d="M1044.75,27.73h-5.11V23.48h14.64v4.25h-5.09V44.14h-4.44Z"/><path class="cls-3" d="M1068.45,31.4v4.24h-7.68v4.25h9v4.25h-13.48V23.48h13.34v4.25h-8.91V31.4Z"/><path class="cls-3" d="M529.47,63.64h-6.82V58h19.52v5.67h-6.79v22h-5.91Z"/><path class="cls-3" d="M550.82,58V68.76h8V58h5.91V85.69h-5.91V74.42h-8V85.69h-5.9V58Z"/><path class="cls-3" d="M584.84,68.53v5.66H574.6V80h12.07v5.66h-18V58h17.77v5.67H574.6v4.89Z"/><path class="cls-3" d="M615,69.69v5.66h-9.42V85.69h-5.9V58h17.45v5.67H605.53v6Z"/><path class="cls-3" d="M619.7,58h11.06c5.21,0,8.36,2.86,8.36,7.86,0,3.86-1.84,6.13-4.76,6.9v.08c5.87,1.19,3.74,12,5.09,12.5v.38h-6.14c-1.14-1.15,1-9.76-4-9.76h-3.67v9.76H619.7Zm5.91,12.29h4c2.36,0,3.6-1,3.6-3.31s-1.24-3.31-3.6-3.31h-4Z"/><path class="cls-3" d="M658.6,68.53v5.66H648.37V80h12.07v5.66h-18V58h17.78v5.67H648.37v4.89Z"/><path class="cls-3" d="M679.69,68.53v5.66H669.45V80h12.07v5.66h-18V58h17.78v5.67H669.45v4.89Z"/><path class="cls-3" d="M713.08,77.6c0,5.28-3.41,8.71-9.28,8.71-6.14,0-10.76-3.83-10.76-10.15h6c0,3.2,2.06,4.56,4.72,4.56,2.2,0,3.31-1,3.31-2.46,0-2.35-2.33-3.14-5.57-4.3-4.1-1.38-7.71-3.31-7.71-8.24,0-6,4-8.36,9-8.36,5.48,0,9.78,3.39,9.94,9h-6a3.67,3.67,0,0,0-4-3.39c-1.77,0-3,.7-3,2.28,0,1.85,1.31,2.46,4.29,3.5C708.52,70.26,713.08,71.9,713.08,77.6Z"/><path class="cls-3" d="M714.72,71.73c0-8.29,4.16-14.37,11.61-14.37s11.61,6.08,11.61,14.37-4.23,14.58-11.61,14.58S714.72,80.05,714.72,71.73Zm17.18,0c0-4.78-1.31-8.71-5.57-8.71s-5.58,3.93-5.58,8.71,1.28,8.92,5.58,8.92S731.9,76.54,731.9,71.73Z"/><path class="cls-3" d="M756.21,69.69v5.66h-9.42V85.69h-5.9V58h17.45v5.67H746.79v6Z"/><path class="cls-3" d="M766.93,63.64h-6.82V58h19.51v5.67h-6.79v22h-5.9Z"/><path class="cls-3" d="M787.3,58l3,18.86h.07L794,58h5.58l3.64,18.86h.06l3-18.86h5.9l-6,27.72h-5.9l-3.51-17.35h-.07l-3.51,17.35h-5.9l-6-27.72Z"/><path class="cls-3" d="M817.73,80l-1.51,5.74h-6.33L818.81,58h5.94l9,27.72h-6.46L825.77,80Zm6.72-5.45L821.8,64.33h-.07L819.08,74.5Z"/><path class="cls-3" d="M835.51,58h11c5.21,0,8.36,2.86,8.36,7.86,0,3.86-1.83,6.13-4.75,6.9v.08c5.87,1.19,3.74,12,5.08,12.5v.38h-6.13c-1.15-1.15,1-9.76-4-9.76h-3.67v9.76h-5.9Zm5.9,12.29h4c2.36,0,3.61-1,3.61-3.31s-1.25-3.31-3.61-3.31h-4Z"/><path class="cls-3" d="M874.41,68.53v5.66H864.17V80h12.07v5.66h-18V58H876v5.67H864.17v4.89Z"/><path class="cls-3" d="M907.8,77.6c0,5.28-3.41,8.71-9.29,8.71-6.13,0-10.75-3.83-10.75-10.15h6c0,3.2,2.06,4.56,4.72,4.56,2.2,0,3.31-1,3.31-2.46,0-2.35-2.33-3.14-5.57-4.3-4.11-1.38-7.71-3.31-7.71-8.24,0-6,4-8.36,9-8.36,5.48,0,9.77,3.39,9.94,9h-6a3.67,3.67,0,0,0-4-3.39c-1.77,0-3,.7-3,2.28,0,1.85,1.31,2.46,4.3,3.5C903.24,70.26,907.8,71.9,907.8,77.6Z"/><path class="cls-3" d="M920.22,86.31c-7.08,0-9.8-3.87-9.8-10.73V58h5.9V75.58c0,3.58,1.31,5.07,3.9,5.07s3.91-1.49,3.91-5.07V58H930V75.58C930,82.44,927.31,86.31,920.22,86.31Z"/><path class="cls-3" d="M933.8,58h11.38c4.89,0,7.94,3,7.94,8.79s-3,8.78-7.94,8.78h-5.47V85.69H933.8Zm10,11.91c2,0,3.29-.81,3.29-3.12s-1.25-3.12-3.29-3.12h-4.09v6.24Z"/><path class="cls-3" d="M955.68,58h11.38C972,58,975,61,975,66.76s-3,8.78-7.93,8.78h-5.48V85.69h-5.9Zm10,11.91c2,0,3.28-.81,3.28-3.12s-1.25-3.12-3.28-3.12h-4.1v6.24Z"/><path class="cls-3" d="M976.57,71.73c0-8.29,4.16-14.37,11.61-14.37s11.61,6.08,11.61,14.37-4.23,14.58-11.61,14.58S976.57,80.05,976.57,71.73Zm17.19,0c0-4.78-1.32-8.71-5.58-8.71S982.6,67,982.6,71.73s1.28,8.92,5.58,8.92S993.76,76.54,993.76,71.73Z"/><path class="cls-3" d="M1002.74,58h11c5.22,0,8.37,2.86,8.37,7.86,0,3.86-1.84,6.13-4.76,6.9v.08c5.87,1.19,3.74,12,5.08,12.5v.38h-6.13c-1.15-1.15,1-9.76-4-9.76h-3.68v9.76h-5.9Zm5.9,12.29h4c2.36,0,3.6-1,3.6-3.31s-1.24-3.31-3.6-3.31h-4Z"/><path class="cls-3" d="M1030.42,63.64h-6.82V58h19.51v5.67h-6.79v22h-5.9Z"/><path class="cls-3" d="M1062,68.53v5.66h-10.23V80h12.07v5.66h-18V58h17.77v5.67h-11.87v4.89Z"/><path class="cls-3" d="M1067,58h11c5.21,0,8.36,2.86,8.36,7.86,0,3.86-1.83,6.13-4.75,6.9v.08c5.87,1.19,3.74,12,5.08,12.5v.38h-6.13c-1.15-1.15,1-9.76-4-9.76h-3.67v9.76H1067Zm5.9,12.29h4c2.36,0,3.61-1,3.61-3.31s-1.25-3.31-3.61-3.31h-4Z"/><path class="cls-4" d="M311.82,43.85c-5.48,9.35-9.57,19.54-9.57,33.82,0,14,4.09,24.17,9.57,33.51h-3.71a61.1,61.1,0,0,1,0-67.33Z"/><path class="cls-4" d="M350.89,74.82v3.7H323.94v26.64h-4.25V50H356v3.79h-32V74.82Z"/><path class="cls-4" d="M400.84,90.41c0,8.65-6.41,15.68-19,15.68-12.74,0-22.24-6.49-23-19h4.48c.77,9.42,6.94,15.29,18.45,15.29,10.42,0,14.59-5.4,14.59-11.89.08-8.73-5.94-10.5-17.91-13-9.65-2-17.37-5-17.37-14.67C361.08,54,368.33,49,379.14,49c11.51,0,19,5.86,19.77,16.37h-4.48c-.85-7.88-5.48-12.67-15.29-12.59-8.49,0-13.59,3.63-13.59,10,0,7.88,6.49,9.5,15.68,11.43C393.12,76.67,400.84,79.76,400.84,90.41Z"/><path class="cls-4" d="M440.45,74.82v3.7H413.5v26.64h-4.25V50h36.29v3.79h-32V74.82Z"/><path class="cls-4" d="M449.79,111.18c5.4-9.34,9.57-19.53,9.57-33.82,0-14-4.17-24.16-9.57-33.51h3.63a60.7,60.7,0,0,1,0,67.33Z"/><rect class="cls-5" x="1.99" y="1.99" width="1102.86" height="160.09"/><rect class="cls-6" x="263.53" y="15.32" width="237.22" height="130.44"/><rect class="cls-6" x="13.47" y="15.32" width="237.22" height="130.44"/><path class="cls-7" d="M68.27,30.73H195.88a6,6,0,0,1,6,5.95v69.95a6,6,0,0,1-6,6H147.36v9.82h12.39v7.94H104.41V122.4H116.8v-9.82H68.27a6,6,0,0,1-5.95-6V36.68a6,6,0,0,1,5.95-5.95Zm71.16,91.67v-9.82h-14.7v9.82Zm-22.63-20V99.93h3.31V98.31a10.07,10.07,0,0,0,1.4-.58l2.19,2.2h1.36l4.6-4.61-2.87-2.87a12,12,0,0,0,.58-1.39h4.06V83.58h-4.06a11.31,11.31,0,0,0-.58-1.39l2.87-2.87L124.38,74l-2.87,2.87a11.4,11.4,0,0,0-1.4-.57V72.26h-7.47v4.07a11.4,11.4,0,0,0-1.4.57L108.37,74l-5.28,5.29L106,82.19a11.31,11.31,0,0,0-.58,1.39h-4.06v7.47h4.06a11.45,11.45,0,0,0,.58,1.4l-2.87,2.87,5.28,5.29,2.87-2.88a11.45,11.45,0,0,0,1.4.58v4.06Zm21.63-61.44h9.71V46.2A16.07,16.07,0,0,1,150,47l3.73-3.73,6.86,6.86-3.73,3.73a14.36,14.36,0,0,1,.75,1.81h5.28v9.71h-5.28a14.36,14.36,0,0,1-.75,1.81l3.73,3.73-6.86,6.86L150,74a14.36,14.36,0,0,1-1.81.75V80h-9.71V74.76a14.36,14.36,0,0,1-1.81-.75l-3.73,3.73L126,70.88l3.73-3.73a13.9,13.9,0,0,1-.75-1.82h-5.28v-9.7H129a14.36,14.36,0,0,1,.75-1.81L126,50.09l6.86-6.86L136.62,47a16.07,16.07,0,0,1,1.81-.76V40.93Zm4.85,10.86a8.7,8.7,0,1,1-8.69,8.7,8.69,8.69,0,0,1,8.69-8.7Zm-26.9,28.83a6.7,6.7,0,1,1-6.7,6.7A6.7,6.7,0,0,1,116.38,80.62Z"/></g></g></svg>