<svg xmlns="http://www.w3.org/2000/svg" viewBox="0 0 1106.83 164.06"><defs><style>.cls-1,.cls-2,.cls-5{fill:#fff8d4;}.cls-2,.cls-3,.cls-4{stroke:#fff8d4;stroke-linecap:round;stroke-linejoin:round;}.cls-2{stroke-width:8.68px;}.cls-3,.cls-4{fill:none;}.cls-3{stroke-width:3.97px;}.cls-4{stroke-width:6.39px;}.cls-5{fill-rule:evenodd;}</style></defs><g id="Layer_2" data-name="Layer 2"><g id="Layer_1-2" data-name="Layer 1"><path class="cls-1" d="M1072.16,23.48h8.29c3.91,0,6.27,2.14,6.27,5.89,0,2.89-1.38,4.6-3.57,5.18v.05c4.41.9,2.81,8.91,3.82,9.25v.29h-4.6c-.87-.87.73-7.19-3-7.19h-2.76v7.19h-4.42Zm4.42,9.22h3c1.77,0,2.7-.75,2.7-2.49s-.93-2.48-2.7-2.48h-3Z"/><path class="cls-1" d="M537.29,38.07c0,4-2.56,6.53-7,6.53-4.6,0-8.07-2.74-8.07-7.48h4.48c0,2.4,1.55,3.29,3.54,3.29,1.65,0,2.49-.78,2.49-1.85,0-1.76-1.75-2.22-4.19-3.09-3.07-1-5.78-2.48-5.78-6.18,0-4.51,3-6.27,6.79-6.27,4.11,0,7.33,2.54,7.46,6.73h-4.48a2.75,2.75,0,0,0-3-2.54c-1.33,0-2.26.52-2.26,1.7,0,1.39,1,1.85,3.22,2.63C533.87,32.7,537.29,33.8,537.29,38.07Z"/><path class="cls-1" d="M546.61,44.6c-5.31,0-7.36-2.77-7.36-7.92V23.48h4.44v13.2c0,2.69,1,3.68,2.92,3.68s2.93-1,2.93-3.68V23.48H554v13.2C554,41.83,551.93,44.6,546.61,44.6Z"/><path class="cls-1" d="M556.79,23.48h8.54c3.67,0,5.59,1.67,5.59,5.2a4.3,4.3,0,0,1-2.73,4.39v.06c1.84.38,3.42,1.82,3.42,4.91,0,4.4-2.39,6.1-6,6.1h-8.79Zm7.39,8.35c1.23,0,2.21-.35,2.21-2s-1-2.05-2.21-2.05h-3v4.1Zm.12,8.06c1.84,0,2.78-.52,2.78-2.45S566.14,35,564.3,35h-3.08v4.88Z"/><path class="cls-1" d="M587.67,38.07c0,4-2.56,6.53-7,6.53-4.6,0-8.07-2.74-8.07-7.48h4.48c0,2.4,1.55,3.29,3.54,3.29,1.65,0,2.49-.78,2.49-1.85,0-1.76-1.75-2.22-4.18-3.09-3.08-1-5.78-2.48-5.78-6.18,0-4.51,3-6.27,6.79-6.27,4.11,0,7.33,2.54,7.45,6.73h-4.48a2.74,2.74,0,0,0-3-2.54c-1.33,0-2.27.52-2.27,1.7,0,1.39,1,1.85,3.23,2.63C584.25,32.7,587.67,33.8,587.67,38.07Z"/><path class="cls-1" d="M597.23,27.26c-2.92,0-3.81,2.66-3.81,6.54s.89,6.56,3.81,6.56c2.37,0,3.15-1.65,3.45-4h4.53c-.4,4.74-3.05,8.2-7.9,8.2-5.59,0-8.42-4.56-8.42-10.72,0-6.33,3-10.86,8.54-10.86,4.8,0,7.36,3.35,7.78,8.15h-4.53C600.36,28.91,599.57,27.26,597.23,27.26Z"/><path class="cls-1" d="M607.17,23.48h8.29c3.91,0,6.28,2.14,6.28,5.89,0,2.89-1.38,4.6-3.57,5.18v.05c4.4.9,2.8,8.91,3.81,9.25v.29h-4.6c-.86-.87.74-7.19-3-7.19H611.6v7.19h-4.43Zm4.43,9.22h3c1.77,0,2.71-.75,2.71-2.49s-.94-2.48-2.71-2.48h-3Z"/><path class="cls-1" d="M628.67,23.48V44.14h-4.43V23.48Z"/><path class="cls-1" d="M631.62,23.48h8.54c3.66,0,5.58,1.67,5.58,5.2A4.3,4.3,0,0,1,643,33.07v.06c1.85.38,3.42,1.82,3.42,4.91,0,4.4-2.39,6.1-6,6.1h-8.78ZM639,31.83c1.23,0,2.21-.35,2.21-2s-1-2.05-2.21-2.05h-3v4.1Zm.12,8.06c1.85,0,2.78-.52,2.78-2.45S641,35,639.12,35h-3.07v4.88Z"/><path class="cls-1" d="M660.65,31.4v4.24H653v4.25h9v4.25H648.54V23.48h13.34v4.25H653V31.4Z"/><path class="cls-1" d="M681.28,27.73h-5.12V23.48H690.8v4.25h-5.1V44.14h-4.42Z"/><path class="cls-1" d="M691.14,33.8c0-6.22,3.12-10.78,8.71-10.78s8.71,4.56,8.71,10.78-3.18,10.8-8.71,10.8S691.14,40,691.14,33.8Zm12.89,0c0-3.59-1-6.54-4.18-6.54s-4.19,2.95-4.19,6.54,1,6.56,4.19,6.56S704,37.41,704,33.8Z"/><path class="cls-1" d="M722.71,33.8c0-6.22,3.13-10.78,8.71-10.78s8.72,4.56,8.72,10.78S737,44.6,731.42,44.6,722.71,40,722.71,33.8Zm12.9,0c0-3.59-1-6.54-4.19-6.54s-4.18,2.95-4.18,6.54,1,6.56,4.18,6.56S735.61,37.41,735.61,33.8Z"/><path class="cls-1" d="M749.58,44.6c-5.32,0-7.36-2.77-7.36-7.92V23.48h4.43v13.2c0,2.69,1,3.68,2.93,3.68s2.93-1,2.93-3.68V23.48h4.42v13.2C756.93,41.83,754.89,44.6,749.58,44.6Z"/><path class="cls-1" d="M759.76,23.48h8.29c3.91,0,6.28,2.14,6.28,5.89,0,2.89-1.38,4.6-3.57,5.18v.05c4.4.9,2.8,8.91,3.81,9.25v.29H770c-.86-.87.74-7.19-3-7.19h-2.75v7.19h-4.43Zm4.43,9.22h3c1.77,0,2.7-.75,2.7-2.49s-.93-2.48-2.7-2.48h-3Z"/><path class="cls-1" d="M789.51,23.48h5.42l3.62,13.18h0l3.62-13.18h5.41V44.14h-4.18V31.28h-.05l-3.27,12.86H797l-3.27-12.86h0V44.14h-4.19Z"/><path class="cls-1" d="M809.83,33.8c0-6.22,3.13-10.78,8.71-10.78s8.71,4.56,8.71,10.78-3.17,10.8-8.71,10.8S809.83,40,809.83,33.8Zm12.9,0c0-3.59-1-6.54-4.19-6.54s-4.18,2.95-4.18,6.54,1,6.56,4.18,6.56S822.73,37.41,822.73,33.8Z"/><path class="cls-1" d="M829.46,23.48h4.43L840,35.76h.05V23.48h4.43V44.14h-4.43l-6.15-12.28h-.05V44.14h-4.43Z"/><path class="cls-1" d="M851.7,27.73h-5.12V23.48h14.64v4.25h-5.09V44.14H851.7Z"/><path class="cls-1" d="M867.71,23.48v8.09h6V23.48h4.43V44.14h-4.43V35.82h-6v8.32h-4.43V23.48Z"/><path class="cls-1" d="M885.54,23.48V39.89h7.83v4.25H881.12V23.48Z"/><path class="cls-1" d="M895.51,23.48l3.42,8.78h0l3.45-8.78h4.67l-5.93,13v7.63h-4.43V36.51l-6-13Z"/><path class="cls-1" d="M921.45,23.48h4.43L932,35.76h.05V23.48h4.43V44.14h-4.43l-6.15-12.28h0V44.14h-4.43Z"/><path class="cls-1" d="M951.56,31.4v4.24h-7.68v4.25h9.06v4.25H939.45V23.48h13.34v4.25h-8.91V31.4Z"/><path class="cls-1" d="M958.47,23.48l2.26,14h0l2.73-14h4.19l2.73,14h.05l2.26-14h4.43l-4.48,20.66h-4.43l-2.63-12.89h0L963,44.14h-4.43L954,23.48Z"/><path class="cls-1" d="M992.46,38.07c0,4-2.55,6.53-7,6.53-4.6,0-8.07-2.74-8.07-7.48h4.48c0,2.4,1.55,3.29,3.54,3.29,1.65,0,2.49-.78,2.49-1.85,0-1.76-1.75-2.22-4.19-3.09-3.07-1-5.78-2.48-5.78-6.18,0-4.51,3-6.27,6.79-6.27,4.11,0,7.34,2.54,7.46,6.73h-4.48a2.75,2.75,0,0,0-3-2.54c-1.33,0-2.26.52-2.26,1.7,0,1.39,1,1.85,3.22,2.63C989,32.7,992.46,33.8,992.46,38.07Z"/><path class="cls-1" d="M998.86,23.48V39.89h7.82v4.25H994.43V23.48Z"/><path class="cls-1" d="M1020.75,31.4v4.24h-7.68v4.25h9.06v4.25h-13.48V23.48H1022v4.25h-8.91V31.4Z"/><path class="cls-1" d="M1028.69,27.73h-5.11V23.48h14.64v4.25h-5.1V44.14h-4.43Z"/><path class="cls-1" d="M1044.75,27.73h-5.11V23.48h14.64v4.25h-5.09V44.14h-4.44Z"/><path class="cls-1" d="M1068.45,31.4v4.24h-7.68v4.25h9v4.25h-13.48V23.48h13.34v4.25h-8.91V31.4Z"/><path class="cls-1" d="M529.47,63.64h-6.82V58h19.52v5.67h-6.79v22h-5.91Z"/><path class="cls-1" d="M550.82,58V68.76h8V58h5.91V85.69h-5.91V74.42h-8V85.69h-5.9V58Z"/><path class="cls-1" d="M584.84,68.53v5.66H574.6V80h12.07v5.66h-18V58h17.77v5.67H574.6v4.89Z"/><path class="cls-1" d="M615,69.69v5.66h-9.42V85.69h-5.9V58h17.45v5.67H605.53v6Z"/><path class="cls-1" d="M619.7,58h11.06c5.21,0,8.36,2.86,8.36,7.86,0,3.86-1.84,6.13-4.76,6.9v.08c5.87,1.19,3.74,12,5.09,12.5v.38h-6.14c-1.14-1.15,1-9.76-4-9.76h-3.67v9.76H619.7Zm5.91,12.29h4c2.36,0,3.6-1,3.6-3.31s-1.24-3.31-3.6-3.31h-4Z"/><path class="cls-1" d="M658.6,68.53v5.66H648.37V80h12.07v5.66h-18V58h17.78v5.67H648.37v4.89Z"/><path class="cls-1" d="M679.69,68.53v5.66H669.45V80h12.07v5.66h-18V58h17.78v5.67H669.45v4.89Z"/><path class="cls-1" d="M713.08,77.6c0,5.28-3.41,8.71-9.28,8.71-6.14,0-10.76-3.83-10.76-10.15h6c0,3.2,2.06,4.56,4.72,4.56,2.2,0,3.31-1,3.31-2.46,0-2.35-2.33-3.14-5.57-4.3-4.1-1.38-7.71-3.31-7.71-8.24,0-6,4-8.36,9-8.36,5.48,0,9.78,3.39,9.94,9h-6a3.67,3.67,0,0,0-4-3.39c-1.77,0-3,.7-3,2.28,0,1.85,1.31,2.46,4.29,3.5C708.52,70.26,713.08,71.9,713.08,77.6Z"/><path class="cls-1" d="M714.72,71.73c0-8.29,4.16-14.37,11.61-14.37s11.61,6.08,11.61,14.37-4.23,14.58-11.61,14.58S714.72,80.05,714.72,71.73Zm17.18,0c0-4.78-1.31-8.71-5.57-8.71s-5.58,3.93-5.58,8.71,1.28,8.92,5.58,8.92S731.9,76.54,731.9,71.73Z"/><path class="cls-1" d="M756.21,69.69v5.66h-9.42V85.69h-5.9V58h17.45v5.67H746.79v6Z"/><path class="cls-1" d="M766.93,63.64h-6.82V58h19.51v5.67h-6.79v22h-5.9Z"/><path class="cls-1" d="M787.3,58l3,18.86h.07L794,58h5.58l3.64,18.86h.06l3-18.86h5.9l-6,27.72h-5.9l-3.51-17.35h-.07l-3.51,17.35h-5.9l-6-27.72Z"/><path class="cls-1" d="M817.73,80l-1.51,5.74h-6.33L818.81,58h5.94l9,27.72h-6.46L825.77,80Zm6.72-5.45L821.8,64.33h-.07L819.08,74.5Z"/><path class="cls-1" d="M835.51,58h11c5.21,0,8.36,2.86,8.36,7.86,0,3.86-1.83,6.13-4.75,6.9v.08c5.87,1.19,3.74,12,5.08,12.5v.38h-6.13c-1.15-1.15,1-9.76-4-9.76h-3.67v9.76h-5.9Zm5.9,12.29h4c2.36,0,3.61-1,3.61-3.31s-1.25-3.31-3.61-3.31h-4Z"/><path class="cls-1" d="M874.41,68.53v5.66H864.17V80h12.07v5.66h-18V58H876v5.67H864.17v4.89Z"/><path class="cls-1" d="M907.8,77.6c0,5.28-3.41,8.71-9.29,8.71-6.13,0-10.75-3.83-10.75-10.15h6c0,3.2,2.06,4.56,4.72,4.56,2.2,0,3.31-1,3.31-2.46,0-2.35-2.33-3.14-5.57-4.3-4.11-1.38-7.71-3.31-7.71-8.24,0-6,4-8.36,9-8.36,5.48,0,9.77,3.39,9.94,9h-6a3.67,3.67,0,0,0-4-3.39c-1.77,0-3,.7-3,2.28,0,1.85,1.31,2.46,4.3,3.5C903.24,70.26,907.8,71.9,907.8,77.6Z"/><path class="cls-1" d="M920.22,86.31c-7.08,0-9.8-3.87-9.8-10.73V58h5.9V75.58c0,3.58,1.31,5.07,3.9,5.07s3.91-1.49,3.91-5.07V58H930V75.58C930,82.44,927.31,86.31,920.22,86.31Z"/><path class="cls-1" d="M933.8,58h11.38c4.89,0,7.94,3,7.94,8.79s-3,8.78-7.94,8.78h-5.47V85.69H933.8Zm10,11.91c2,0,3.29-.81,3.29-3.12s-1.25-3.12-3.29-3.12h-4.09v6.24Z"/><path class="cls-1" d="M955.68,58h11.38C972,58,975,61,975,66.76s-3,8.78-7.93,8.78h-5.48V85.69h-5.9Zm10,11.91c2,0,3.28-.81,3.28-3.12s-1.25-3.12-3.28-3.12h-4.1v6.24Z"/><path class="cls-1" d="M976.57,71.73c0-8.29,4.16-14.37,11.61-14.37s11.61,6.08,11.61,14.37-4.23,14.58-11.61,14.58S976.57,80.05,976.57,71.73Zm17.19,0c0-4.78-1.32-8.71-5.58-8.71S982.6,67,982.6,71.73s1.28,8.92,5.58,8.92S993.76,76.54,993.76,71.73Z"/><path class="cls-1" d="M1002.74,58h11c5.22,0,8.37,2.86,8.37,7.86,0,3.86-1.84,6.13-4.76,6.9v.08c5.87,1.19,3.74,12,5.08,12.5v.38h-6.13c-1.15-1.15,1-9.76-4-9.76h-3.68v9.76h-5.9Zm5.9,12.29h4c2.36,0,3.6-1,3.6-3.31s-1.24-3.31-3.6-3.31h-4Z"/><path class="cls-1" d="M1030.42,63.64h-6.82V58h19.51v5.67h-6.79v22h-5.9Z"/><path class="cls-1" d="M1062,68.53v5.66h-10.23V80h12.07v5.66h-18V58h17.77v5.67h-11.87v4.89Z"/><path class="cls-1" d="M1067,58h11c5.21,0,8.36,2.86,8.36,7.86,0,3.86-1.83,6.13-4.75,6.9v.08c5.87,1.19,3.74,12,5.08,12.5v.38h-6.13c-1.15-1.15,1-9.76-4-9.76h-3.67v9.76H1067Zm5.9,12.29h4c2.36,0,3.61-1,3.61-3.31s-1.25-3.31-3.61-3.31h-4Z"/><path class="cls-2" d="M311.82,43.85c-5.48,9.35-9.57,19.54-9.57,33.82,0,14,4.09,24.17,9.57,33.51h-3.71a61.1,61.1,0,0,1,0-67.33Z"/><path class="cls-2" d="M350.89,74.82v3.7H323.94v26.64h-4.25V50H356v3.79h-32V74.82Z"/><path class="cls-2" d="M400.84,90.41c0,8.65-6.41,15.68-19,15.68-12.74,0-22.24-6.49-23-19h4.48c.77,9.42,6.94,15.29,18.45,15.29,10.42,0,14.59-5.4,14.59-11.89.08-8.73-5.94-10.5-17.91-13-9.65-2-17.37-5-17.37-14.67C361.08,54,368.33,49,379.14,49c11.51,0,19,5.86,19.77,16.37h-4.48c-.85-7.88-5.48-12.67-15.29-12.59-8.49,0-13.59,3.63-13.59,10,0,7.88,6.49,9.5,15.68,11.43C393.12,76.67,400.84,79.76,400.84,90.41Z"/><path class="cls-2" d="M440.45,74.82v3.7H413.5v26.64h-4.25V50h36.29v3.79h-32V74.82Z"/><path class="cls-2" d="M449.79,111.18c5.4-9.34,9.57-19.53,9.57-33.82,0-14-4.17-24.16-9.57-33.51h3.63a60.7,60.7,0,0,1,0,67.33Z"/><rect class="cls-3" x="1.99" y="1.99" width="1102.86" height="160.09"/><rect class="cls-4" x="263.53" y="15.32" width="237.22" height="130.44"/><rect class="cls-4" x="13.47" y="15.32" width="237.22" height="130.44"/><path class="cls-5" d="M68.27,30.73H195.88a6,6,0,0,1,6,5.95v69.95a6,6,0,0,1-6,6H147.36v9.82h12.39v7.94H104.41V122.4H116.8v-9.82H68.27a6,6,0,0,1-5.95-6V36.68a6,6,0,0,1,5.95-5.95Zm71.16,91.67v-9.82h-14.7v9.82Zm-22.63-20V99.93h3.31V98.31a10.07,10.07,0,0,0,1.4-.58l2.19,2.2h1.36l4.6-4.61-2.87-2.87a12,12,0,0,0,.58-1.39h4.06V83.58h-4.06a11.31,11.31,0,0,0-.58-1.39l2.87-2.87L124.38,74l-2.87,2.87a11.4,11.4,0,0,0-1.4-.57V72.26h-7.47v4.07a11.4,11.4,0,0,0-1.4.57L108.37,74l-5.28,5.29L106,82.19a11.31,11.31,0,0,0-.58,1.39h-4.06v7.47h4.06a11.45,11.45,0,0,0,.58,1.4l-2.87,2.87,5.28,5.29,2.87-2.88a11.45,11.45,0,0,0,1.4.58v4.06Zm21.63-61.44h9.71V46.2A16.07,16.07,0,0,1,150,47l3.73-3.73,6.86,6.86-3.73,3.73a14.36,14.36,0,0,1,.75,1.81h5.28v9.71h-5.28a14.36,14.36,0,0,1-.75,1.81l3.73,3.73-6.86,6.86L150,74a14.36,14.36,0,0,1-1.81.75V80h-9.71V74.76a14.36,14.36,0,0,1-1.81-.75l-3.73,3.73L126,70.88l3.73-3.73a13.9,13.9,0,0,1-.75-1.82h-5.28v-9.7H129a14.36,14.36,0,0,1,.75-1.81L126,50.09l6.86-6.86L136.62,47a16.07,16.07,0,0,1,1.81-.76V40.93Zm4.85,10.86a8.7,8.7,0,1,1-8.69,8.7,8.69,8.69,0,0,1,8.69-8.7Zm-26.9,28.83a6.7,6.7,0,1,1-6.7,6.7A6.7,6.7,0,0,1,116.38,80.62Z"/></g></g></svg>